<?xml version="1.0" encoding="UTF-8"?>
<svg id="Layer_2" data-name="Layer 2" xmlns="http://www.w3.org/2000/svg" xmlns:xlink="http://www.w3.org/1999/xlink" viewBox="0 0 16 16">
  <defs>
    <style>
      .cls-1, .cls-2 {
        fill: none;
      }

      .cls-3, .cls-4, .cls-2 {
        stroke: #aec0dd;
        stroke-miterlimit: 10;
      }

      .cls-3, .cls-2 {
        stroke-width: .75px;
      }

      .cls-5 {
        clip-path: url(#clippath);
      }
    </style>
    <clipPath id="clippath">
      <rect class="cls-1" x="0" y="-.01" width="16" height="15.98" rx="6.15" ry="6.15"/>
    </clipPath>
  </defs>
  <g class="cls-5">
    <g>
      <rect class="cls-4" x="0" y="-.01" width="16" height="15.98"/>
      <g>
        <polygon class="cls-2" points="-18.45 -3.16 -10.09 7.9 -10.19 22.01 3.21 17.38 17.27 21.88 16.84 7.4 24.99 -4.66 11 -8.43 2.76 -19.12 -5.38 -7.88 -18.45 -3.16"/>
        <circle class="cls-2" cx="3.18" cy="3.29" r="5.41"/>
        <circle class="cls-3" cx="3.29" cy="17.51" r="2.2"/>
        <path class="cls-2" d="M-7.03,20.95c-.91-2.63.73-5.37,1.72-6.08,1.84-1.31,3.74-1.75,6.58-.19,1.88,1.03,3.14.51,3.9.05,1.52-.92,4.67-1.58,6.56-.18,2.68,1.97,2.33,5.63,2.13,6.25"/>
        <path class="cls-2" d="M-10.11,19.95c2.09-.1,2.66-1.59,2.94-2.16.78-1.6-.09-3.15-1.13-3.95-1.47-1.12-.54-2.74-.23-3.08.37-.4,1.95-1.46,3.25.61.78,1.24,1.17,1.83,2.14,2.14s3.56.2,4.3-2.22c.46-1.5-.12-2.86-1.41-3.82-.94-.7-2.74-.32-3.6.31-.67.49-2.7.66-3.22-.96-.66-2.07,1.06-2.77,1.99-2.83,1.52-.1,1.91-.35,2.73-1.46.75-1.01.53-3.29-.65-4.37-1.21-1.12-3.14-.74-4.14.04-1.04.81-1.62,1.51-1.09,3.64.49,1.97-.88,2.81-1.85,2.85-1.12.05-2.26-1.1-2.15-2,.18-1.59.49-1.8-.33-3.36-.5-.96-1.61-1.63-2.74-1.68-1.06-.05-1.84.45-2.11.64"/>
        <path class="cls-2" d="M3.69-17.9c-1.15,1.52-1.53,2.55-1.35,3.13.26.86.76,2.38,3.39,2.92,1.51.31,2.43,1.04,2.08,2.55-.21.9-1.17,1.85-3,1.17-1.53-.56-2.57-.69-3.59-.25C0-7.86-.79-5.71-.23-4.26S1.97-2.01,3.11-2.15c.75-.09,2.7-.4,2.96-1.94.21-1.24,1.49-2.85,3.47-1.49.72.49,1.17,2.15-.09,3.26-.83.72-1.9,2.49-1.3,3.59.4.72.35,1.88,3.05,2.37,2.43.44,2.43,1.8,2.28,2.7-.14.8-1.48,1.94-3.11,1.12-1.13-.57-1.79-.68-2.71-.5-2.14.42-2.87,2.29-2.34,4.23.3,1.11,1.26,2.23,2.4,2.35.44.05,2.55.82,3.87-2.13.6-1.36,1.95-2.21,3.18-1.44,1.01.63,1.23,2.6.22,3.57-1,.96-1.78,1.89-1.16,3.8.14.43.66,2,3.18,2.42"/>
        <path class="cls-2" d="M8.96-10.99c-.22.26-1.57,1.98-1.01,3.56.45,1.27,1.48,2.15,3.15,2.3,1.89.17,2.27.12,3.58,1.05,1.24.88,1.98,2.24,2.12,2.61.16.44.41,1.83-.08,3.43-.37,1.19-1.03,1.84-1.84,2.52-.84.71-1.11,1.24-1.29,1.88-.1.35-.27,1.39,0,2.16.59,1.73,3.16,2.12,3.3,2.16"/>
        <path class="cls-2" d="M13-7.78c-.31,1.77.75,3.15,1.34,3.47,1.76.96,2.56,1.1,4.29.08,1.83-1.08,3.14.25,3.29.78.45,1.52-.79,2.73-1.88,2.77-1.64.06-2.94.87-3.37,2.63-.16.66-.4,2.03,1.37,3.67"/>
      </g>
    </g>
  </g>
</svg>