<?xml version="1.0" encoding="UTF-8"?>
<svg id="Layer_2" data-name="Layer 2" xmlns="http://www.w3.org/2000/svg" viewBox="0 0 160 160">
  <defs>
    <style>
      .cls-1 {
        fill: #aec0dd;
        font-family: ArialMT, Arial;
        font-size: 47.97px;
      }

      .cls-2, .cls-3 {
        stroke: #aec0dd;
        stroke-miterlimit: 10;
      }

      .cls-3 {
        fill: none;
      }

      .cls-4 {
        letter-spacing: .09em;
      }

      .cls-5 {
        letter-spacing: .09em;
      }
    </style>
  </defs>
  <g>
    <polygon class="cls-3" points="116.96 93.07 123.49 101.72 123.42 112.76 133.9 109.14 144.9 112.66 144.56 101.33 150.93 91.89 139.99 88.95 133.55 80.59 127.18 89.37 116.96 93.07"/>
    <circle class="cls-3" cx="133.87" cy="98.12" r="4.23"/>
    <circle class="cls-2" cx="133.97" cy="109.24" r="1.72"/>
    <circle class="cls-2" cx="123.49" cy="101.72" r="2.51"/>
    <circle class="cls-2" cx="150.98" cy="92" r="2.65"/>
    <circle class="cls-2" cx="127.18" cy="89.37" r="1.56"/>
    <path class="cls-3" d="M125.89,111.93c-.71-2.06.57-4.2,1.34-4.75,1.44-1.03,2.93-1.37,5.15-.15,1.47.81,2.46.4,3.05.04,1.19-.72,3.65-1.23,5.13-.14,2.09,1.54,1.82,4.4,1.67,4.89"/>
    <path class="cls-3" d="M123.48,111.15c1.63-.08,2.08-1.24,2.3-1.69.61-1.25-.07-2.47-.89-3.09-1.15-.88-.42-2.15-.18-2.41.29-.32,1.53-1.14,2.54.48.61.97.92,1.43,1.68,1.68s2.78.16,3.36-1.74c.36-1.18-.09-2.23-1.1-2.99-.74-.55-2.14-.25-2.82.24-.52.38-2.11.52-2.52-.75-.52-1.62.83-2.17,1.55-2.21,1.19-.08,1.49-.27,2.14-1.14.59-.79.41-2.57-.51-3.42-.95-.87-2.45-.58-3.24.03-.82.64-1.26,1.18-.85,2.84.38,1.54-.69,2.2-1.45,2.23-.87.04-1.77-.86-1.68-1.56.14-1.24.38-1.41-.26-2.63-.39-.75-1.26-1.27-2.14-1.31-.83-.04-1.44.35-1.65.5"/>
    <path class="cls-3" d="M119.28,92.23c.6,1.61,2.39,2.79,3.86,2.8,2.76.03,3.68-2.46,3.9-2.85.12-.21.53-1.05.9-1.45.16-.17.78-.41,1.66-.58,1.08-.22,1.58-.39,2.37-.97s1.25-1.36,1.43-1.98c.14-.49.45-1.61-.04-2.88-.35-.93-.96-1.5-1.29-1.76"/>
    <path class="cls-3" d="M134.28,81.54c-.9,1.19-1.2,1.99-1.06,2.45.2.68.59,1.86,2.65,2.29,1.18.24,1.9.81,1.63,2-.16.7-.91,1.44-2.35.92-1.2-.44-2.01-.54-2.81-.2-.95.4-1.57,2.09-1.13,3.23s1.73,1.76,2.62,1.65c.59-.07,2.11-.32,2.32-1.52.17-.97,1.17-2.23,2.71-1.17.56.38.92,1.68-.07,2.55-.65.57-1.48,1.95-1.01,2.81.31.57.27,1.47,2.39,1.86,1.9.35,1.9,1.41,1.78,2.11-.11.63-1.16,1.51-2.43.88-.89-.45-1.4-.53-2.12-.39-1.67.33-2.24,1.79-1.83,3.31.23.87.99,1.74,1.88,1.84.34.04,2,.64,3.03-1.67.47-1.06,1.52-1.73,2.49-1.13.79.49.96,2.03.17,2.79-.78.75-1.39,1.48-.91,2.98.11.34.52,1.56,2.49,1.89"/>
    <path class="cls-3" d="M138.4,86.95c-.17.21-1.23,1.55-.79,2.79.36,1,1.16,1.68,2.46,1.8,1.48.13,1.77.09,2.8.82.97.68,1.55,1.75,1.66,2.04.12.34.32,1.43-.06,2.68-.29.93-.8,1.44-1.44,1.97-.66.55-.87.97-1.01,1.47-.08.27-.21,1.09,0,1.69.46,1.36,2.47,1.66,2.58,1.69"/>
    <path class="cls-3" d="M141.56,89.45c-.24,1.39.59,2.46,1.05,2.72,1.37.75,2,.86,3.35.06,1.43-.85,2.45.2,2.58.61.35,1.19-.62,2.14-1.47,2.17-1.28.05-2.3.68-2.64,2.06-.12.51-.32,1.59,1.08,2.87"/>
  </g>
  <text class="cls-1" transform="translate(5.59 71.93)"><tspan class="cls-5"><tspan x="0" y="0">praxis</tspan></tspan><tspan class="cls-4"><tspan x="0" y="41.73">map</tspan></tspan></text>
</svg>